<svg width="86" height="27" viewBox="0 0 86 27" fill="none" xmlns="http://www.w3.org/2000/svg">
<path d="M11.1417 8.815H9.43232V4.01416C9.43232 3.3595 9.06862 2.9958 8.45033 2.9958H4.37689C3.7586 2.9958 3.3949 3.3595 3.3949 4.01416V8.815H1.68551C1.03085 8.815 0.667153 9.1787 0.667153 9.83336V13.6158C0.667153 14.2341 1.03085 14.5978 1.68551 14.5978H3.3949V26.018C3.3949 26.6727 3.7586 27 4.37689 27H8.45033C9.06862 27 9.43232 26.6727 9.43232 26.018V14.5978H11.1417C11.76 14.5978 12.1237 14.2341 12.1237 13.6158V9.83336C12.1237 9.1787 11.76 8.815 11.1417 8.815ZM24.2949 8.30582C22.2218 8.30582 20.7306 9.14233 19.8214 10.3425V2.55936C19.8214 1.9047 19.4577 1.541 18.8394 1.541H14.7659C14.1113 1.541 13.784 1.9047 13.784 2.55936V26.018C13.784 26.6727 14.1113 27 14.7659 27H18.8394C19.4577 27 19.8214 26.6727 19.8214 26.018V16.5618C19.8214 14.9252 20.5851 14.0159 22.0399 14.0159C23.2402 14.0159 24.0403 14.7433 24.0403 16.1254V26.018C24.0403 26.6727 24.404 27 25.0587 27H29.0957C29.7504 27 30.1141 26.6727 30.1141 26.018V15.4707C30.1141 10.9245 27.6773 8.30582 24.2949 8.30582ZM42.4776 8.56041C40.6955 8.85137 39.2771 9.9061 38.7679 11.7246V9.83336C38.7679 9.1787 38.4042 8.85137 37.7859 8.85137H33.7125C33.0578 8.85137 32.7305 9.1787 32.7305 9.83336V26.018C32.7305 26.6727 33.0578 27 33.7125 27H37.7859C38.4042 27 38.7679 26.6727 38.7679 26.018V18.9259C38.7679 16.0526 40.6955 15.0343 42.6959 15.0706C43.205 15.0706 43.496 14.7797 43.496 14.125V9.50603C43.496 8.85137 43.1323 8.41493 42.4776 8.56041ZM45.9462 6.81465H50.0196C50.6379 6.81465 51.0016 6.45095 51.0016 5.83266V2.55936C51.0016 1.9047 50.6379 1.57737 50.0196 1.57737H45.9462C45.2915 1.57737 44.9642 1.9047 44.9642 2.55936V5.83266C44.9642 6.45095 45.2915 6.81465 45.9462 6.81465ZM45.9462 27H50.0196C50.6379 27 51.0016 26.6727 51.0016 26.018V9.83336C51.0016 9.1787 50.6379 8.85137 50.0196 8.85137H45.9462C45.2915 8.85137 44.9642 9.1787 44.9642 9.83336V26.018C44.9642 26.6727 45.2915 27 45.9462 27ZM54.9122 27H58.9857C59.604 27 59.9677 26.6727 59.9677 26.018V1.83196C59.9677 1.1773 59.604 0.849969 58.9857 0.849969H54.9122C54.2576 0.849969 53.9303 1.1773 53.9303 1.83196V26.018C53.9303 26.6727 54.2576 27 54.9122 27ZM63.8783 27H67.9518C68.5701 27 68.9338 26.6727 68.9338 26.018V1.83196C68.9338 1.1773 68.5701 0.849969 67.9518 0.849969H63.8783C63.2237 0.849969 62.8963 1.1773 62.8963 1.83196V26.018C62.8963 26.6727 63.2237 27 63.8783 27ZM79.1 21.399L85.1375 13.5067C85.4284 13.143 85.5375 12.7793 85.5375 12.3065V9.83336C85.5375 9.1787 85.1738 8.815 84.5555 8.815H72.3716C71.7533 8.815 71.3896 9.1787 71.3896 9.83336V13.434C71.3896 14.0886 71.7533 14.416 72.3716 14.416H77.4634L71.426 22.3446C71.135 22.7083 71.0259 23.072 71.0259 23.5448V26.018C71.0259 26.6727 71.3896 27 72.0079 27H84.9192C85.5375 27 85.9012 26.6727 85.9012 26.018V22.4174C85.9012 21.7627 85.5375 21.399 84.9192 21.399H79.1Z" fill="url(#paint0_linear)"/>
<defs>
<linearGradient id="paint0_linear" x1="4.77253" y1="3.64151" x2="85.6482" y2="8.99998" gradientUnits="userSpaceOnUse">
<stop stop-color="#6D70FB"/>
<stop offset="1" stop-color="#28D9FB"/>
</linearGradient>
</defs>
</svg>
